<svg width="1080" height="1080" viewBox="0 0 1080 1080" fill="none" xmlns="http://www.w3.org/2000/svg">
<g clip-path="url(#clip0_9_58)">
<path d="M1079.63 0H0V1079.63H1079.63V0Z" fill="white"/>
<path d="M52.1252 16H16V52.1252H52.1252V16Z" fill="black"/>
<path d="M88.2503 16H52.1252V52.1252H88.2503V16Z" fill="black"/>
<path d="M124.376 16H88.2503V52.1252H124.376V16Z" fill="black"/>
<path d="M160.501 16H124.376V52.1252H160.501V16Z" fill="black"/>
<path d="M196.626 16H160.501V52.1252H196.626V16Z" fill="black"/>
<path d="M232.751 16H196.626V52.1252H232.751V16Z" fill="black"/>
<path d="M268.876 16H232.751V52.1252H268.876V16Z" fill="black"/>
<path d="M341.127 16H305.001V52.1252H341.127V16Z" fill="black"/>
<path d="M413.377 16H377.252V52.1252H413.377V16Z" fill="black"/>
<path d="M485.627 16H449.502V52.1252H485.627V16Z" fill="black"/>
<path d="M521.752 16H485.627V52.1252H521.752V16Z" fill="black"/>
<path d="M557.878 16H521.752V52.1252H557.878V16Z" fill="black"/>
<path d="M702.378 16H666.253V52.1252H702.378V16Z" fill="black"/>
<path d="M774.629 16H738.503V52.1252H774.629V16Z" fill="black"/>
<path d="M846.879 16H810.754V52.1252H846.879V16Z" fill="black"/>
<path d="M883.004 16H846.879V52.1252H883.004V16Z" fill="black"/>
<path d="M919.129 16H883.004V52.1252H919.129V16Z" fill="black"/>
<path d="M955.254 16H919.129V52.1252H955.254V16Z" fill="black"/>
<path d="M991.38 16H955.254V52.1252H991.38V16Z" fill="black"/>
<path d="M1027.5 16H991.38V52.1252H1027.5V16Z" fill="black"/>
<path d="M1063.63 16H1027.5V52.1252H1063.63V16Z" fill="black"/>
<path d="M52.1252 52.1252H16V88.2503H52.1252V52.1252Z" fill="black"/>
<path d="M268.876 52.1252H232.751V88.2503H268.876V52.1252Z" fill="black"/>
<path d="M377.252 52.1252H341.127V88.2503H377.252V52.1252Z" fill="black"/>
<path d="M485.627 52.1252H449.502V88.2503H485.627V52.1252Z" fill="black"/>
<path d="M521.752 52.1252H485.627V88.2503H521.752V52.1252Z" fill="black"/>
<path d="M594.003 52.1252H557.878V88.2503H594.003V52.1252Z" fill="black"/>
<path d="M738.503 52.1252H702.378V88.2503H738.503V52.1252Z" fill="black"/>
<path d="M846.879 52.1252H810.754V88.2503H846.879V52.1252Z" fill="black"/>
<path d="M1063.63 52.1252H1027.5V88.2503H1063.63V52.1252Z" fill="black"/>
<path d="M52.1252 88.2503H16V124.376H52.1252V88.2503Z" fill="black"/>
<path d="M124.376 88.2503H88.2503V124.376H124.376V88.2503Z" fill="black"/>
<path d="M160.501 88.2503H124.376V124.376H160.501V88.2503Z" fill="black"/>
<path d="M196.626 88.2503H160.501V124.376H196.626V88.2503Z" fill="black"/>
<path d="M268.876 88.2503H232.751V124.376H268.876V88.2503Z" fill="black"/>
<path d="M341.127 88.2503H305.001V124.376H341.127V88.2503Z" fill="black"/>
<path d="M449.502 88.2503H413.377V124.376H449.502V88.2503Z" fill="black"/>
<path d="M557.878 88.2503H521.752V124.376H557.878V88.2503Z" fill="black"/>
<path d="M630.128 88.2503H594.003V124.376H630.128V88.2503Z" fill="black"/>
<path d="M774.629 88.2503H738.503V124.376H774.629V88.2503Z" fill="black"/>
<path d="M846.879 88.2503H810.754V124.376H846.879V88.2503Z" fill="black"/>
<path d="M919.129 88.2503H883.004V124.376H919.129V88.2503Z" fill="black"/>
<path d="M955.254 88.2503H919.129V124.376H955.254V88.2503Z" fill="black"/>
<path d="M991.38 88.2503H955.254V124.376H991.38V88.2503Z" fill="black"/>
<path d="M1063.63 88.2503H1027.5V124.376H1063.63V88.2503Z" fill="black"/>
<path d="M52.1252 124.376H16V160.501H52.1252V124.376Z" fill="black"/>
<path d="M124.376 124.376H88.2503V160.501H124.376V124.376Z" fill="black"/>
<path d="M160.501 124.376H124.376V160.501H160.501V124.376Z" fill="black"/>
<path d="M196.626 124.376H160.501V160.501H196.626V124.376Z" fill="black"/>
<path d="M268.876 124.376H232.751V160.501H268.876V124.376Z" fill="black"/>
<path d="M377.252 124.376H341.127V160.501H377.252V124.376Z" fill="black"/>
<path d="M413.377 124.376H377.252V160.501H413.377V124.376Z" fill="black"/>
<path d="M449.502 124.376H413.377V160.501H449.502V124.376Z" fill="black"/>
<path d="M485.627 124.376H449.502V160.501H485.627V124.376Z" fill="black"/>
<path d="M521.752 124.376H485.627V160.501H521.752V124.376Z" fill="black"/>
<path d="M557.878 124.376H521.752V160.501H557.878V124.376Z" fill="black"/>
<path d="M666.253 124.376H630.128V160.501H666.253V124.376Z" fill="black"/>
<path d="M702.378 124.376H666.253V160.501H702.378V124.376Z" fill="black"/>
<path d="M738.503 124.376H702.378V160.501H738.503V124.376Z" fill="black"/>
<path d="M846.879 124.376H810.754V160.501H846.879V124.376Z" fill="black"/>
<path d="M919.129 124.376H883.004V160.501H919.129V124.376Z" fill="black"/>
<path d="M955.254 124.376H919.129V160.501H955.254V124.376Z" fill="black"/>
<path d="M991.38 124.376H955.254V160.501H991.38V124.376Z" fill="black"/>
<path d="M1063.63 124.376H1027.5V160.501H1063.63V124.376Z" fill="black"/>
<path d="M52.1252 160.501H16V196.626H52.1252V160.501Z" fill="black"/>
<path d="M124.376 160.501H88.2503V196.626H124.376V160.501Z" fill="black"/>
<path d="M160.501 160.501H124.376V196.626H160.501V160.501Z" fill="black"/>
<path d="M196.626 160.501H160.501V196.626H196.626V160.501Z" fill="black"/>
<path d="M268.876 160.501H232.751V196.626H268.876V160.501Z" fill="black"/>
<path d="M341.127 160.501H305.001V196.626H341.127V160.501Z" fill="black"/>
<path d="M449.502 160.501H413.377V196.626H449.502V160.501Z" fill="black"/>
<path d="M485.627 160.501H449.502V196.626H485.627V160.501Z" fill="black"/>
<path d="M521.752 160.501H485.627V196.626H521.752V160.501Z" fill="black"/>
<path d="M557.878 160.501H521.752V196.626H557.878V160.501Z" fill="black"/>
<path d="M630.128 160.501H594.003V196.626H630.128V160.501Z" fill="black"/>
<path d="M846.879 160.501H810.754V196.626H846.879V160.501Z" fill="black"/>
<path d="M919.129 160.501H883.004V196.626H919.129V160.501Z" fill="black"/>
<path d="M955.254 160.501H919.129V196.626H955.254V160.501Z" fill="black"/>
<path d="M991.38 160.501H955.254V196.626H991.38V160.501Z" fill="black"/>
<path d="M1063.63 160.501H1027.5V196.626H1063.63V160.501Z" fill="black"/>
<path d="M52.1252 196.626H16V232.751H52.1252V196.626Z" fill="black"/>
<path d="M268.876 196.626H232.751V232.751H268.876V196.626Z" fill="black"/>
<path d="M377.252 196.626H341.127V232.751H377.252V196.626Z" fill="black"/>
<path d="M449.502 196.626H413.377V232.751H449.502V196.626Z" fill="black"/>
<path d="M630.128 196.626H594.003V232.751H630.128V196.626Z" fill="black"/>
<path d="M666.253 196.626H630.128V232.751H666.253V196.626Z" fill="black"/>
<path d="M774.629 196.626H738.503V232.751H774.629V196.626Z" fill="black"/>
<path d="M846.879 196.626H810.754V232.751H846.879V196.626Z" fill="black"/>
<path d="M1063.63 196.626H1027.5V232.751H1063.63V196.626Z" fill="black"/>
<path d="M52.1252 232.751H16V268.876H52.1252V232.751Z" fill="black"/>
<path d="M88.2503 232.751H52.1252V268.876H88.2503V232.751Z" fill="black"/>
<path d="M124.376 232.751H88.2503V268.876H124.376V232.751Z" fill="black"/>
<path d="M160.501 232.751H124.376V268.876H160.501V232.751Z" fill="black"/>
<path d="M196.626 232.751H160.501V268.876H196.626V232.751Z" fill="black"/>
<path d="M232.751 232.751H196.626V268.876H232.751V232.751Z" fill="black"/>
<path d="M268.876 232.751H232.751V268.876H268.876V232.751Z" fill="black"/>
<path d="M341.127 232.751H305.001V268.876H341.127V232.751Z" fill="black"/>
<path d="M413.377 232.751H377.252V268.876H413.377V232.751Z" fill="black"/>
<path d="M485.627 232.751H449.502V268.876H485.627V232.751Z" fill="black"/>
<path d="M557.878 232.751H521.752V268.876H557.878V232.751Z" fill="black"/>
<path d="M630.128 232.751H594.003V268.876H630.128V232.751Z" fill="black"/>
<path d="M702.378 232.751H666.253V268.876H702.378V232.751Z" fill="black"/>
<path d="M774.629 232.751H738.503V268.876H774.629V232.751Z" fill="black"/>
<path d="M846.879 232.751H810.754V268.876H846.879V232.751Z" fill="black"/>
<path d="M883.004 232.751H846.879V268.876H883.004V232.751Z" fill="black"/>
<path d="M919.129 232.751H883.004V268.876H919.129V232.751Z" fill="black"/>
<path d="M955.254 232.751H919.129V268.876H955.254V232.751Z" fill="black"/>
<path d="M991.38 232.751H955.254V268.876H991.38V232.751Z" fill="black"/>
<path d="M1027.5 232.751H991.38V268.876H1027.5V232.751Z" fill="black"/>
<path d="M1063.63 232.751H1027.5V268.876H1063.63V232.751Z" fill="black"/>
<path d="M377.252 268.876H341.127V305.001H377.252V268.876Z" fill="black"/>
<path d="M485.627 268.876H449.502V305.001H485.627V268.876Z" fill="black"/>
<path d="M521.752 268.876H485.627V305.001H521.752V268.876Z" fill="black"/>
<path d="M557.878 268.876H521.752V305.001H557.878V268.876Z" fill="black"/>
<path d="M666.253 268.876H630.128V305.001H666.253V268.876Z" fill="black"/>
<path d="M702.378 268.876H666.253V305.001H702.378V268.876Z" fill="black"/>
<path d="M738.503 268.876H702.378V305.001H738.503V268.876Z" fill="black"/>
<path d="M774.629 268.876H738.503V305.001H774.629V268.876Z" fill="black"/>
<path d="M88.2503 305.001H52.1252V341.127H88.2503V305.001Z" fill="black"/>
<path d="M196.626 305.001H160.501V341.127H196.626V305.001Z" fill="black"/>
<path d="M268.876 305.001H232.751V341.127H268.876V305.001Z" fill="black"/>
<path d="M413.377 305.001H377.252V341.127H413.377V305.001Z" fill="black"/>
<path d="M449.502 305.001H413.377V341.127H449.502V305.001Z" fill="black"/>
<path d="M485.627 305.001H449.502V341.127H485.627V305.001Z" fill="black"/>
<path d="M666.253 305.001H630.128V341.127H666.253V305.001Z" fill="black"/>
<path d="M738.503 305.001H702.378V341.127H738.503V305.001Z" fill="black"/>
<path d="M810.754 305.001H774.629V341.127H810.754V305.001Z" fill="black"/>
<path d="M919.129 305.001H883.004V341.127H919.129V305.001Z" fill="black"/>
<path d="M991.38 305.001H955.254V341.127H991.38V305.001Z" fill="black"/>
<path d="M1063.63 305.001H1027.5V341.127H1063.63V305.001Z" fill="black"/>
<path d="M160.501 341.127H124.376V377.252H160.501V341.127Z" fill="black"/>
<path d="M305.001 341.127H268.876V377.252H305.001V341.127Z" fill="black"/>
<path d="M341.127 341.127H305.001V377.252H341.127V341.127Z" fill="black"/>
<path d="M377.252 341.127H341.127V377.252H377.252V341.127Z" fill="black"/>
<path d="M485.627 341.127H449.502V377.252H485.627V341.127Z" fill="black"/>
<path d="M557.878 341.127H521.752V377.252H557.878V341.127Z" fill="black"/>
<path d="M702.378 341.127H666.253V377.252H702.378V341.127Z" fill="black"/>
<path d="M738.503 341.127H702.378V377.252H738.503V341.127Z" fill="black"/>
<path d="M774.629 341.127H738.503V377.252H774.629V341.127Z" fill="black"/>
<path d="M883.004 341.127H846.879V377.252H883.004V341.127Z" fill="black"/>
<path d="M955.254 341.127H919.129V377.252H955.254V341.127Z" fill="black"/>
<path d="M1063.63 341.127H1027.5V377.252H1063.63V341.127Z" fill="black"/>
<path d="M52.1252 377.252H16V413.377H52.1252V377.252Z" fill="black"/>
<path d="M160.501 377.252H124.376V413.377H160.501V377.252Z" fill="black"/>
<path d="M268.876 377.252H232.751V413.377H268.876V377.252Z" fill="black"/>
<path d="M305.001 377.252H268.876V413.377H305.001V377.252Z" fill="black"/>
<path d="M449.502 377.252H413.377V413.377H449.502V377.252Z" fill="black"/>
<path d="M521.752 377.252H485.627V413.377H521.752V377.252Z" fill="black"/>
<path d="M557.878 377.252H521.752V413.377H557.878V377.252Z" fill="black"/>
<path d="M630.128 377.252H594.003V413.377H630.128V377.252Z" fill="black"/>
<path d="M666.253 377.252H630.128V413.377H666.253V377.252Z" fill="black"/>
<path d="M774.629 377.252H738.503V413.377H774.629V377.252Z" fill="black"/>
<path d="M810.754 377.252H774.629V413.377H810.754V377.252Z" fill="black"/>
<path d="M846.879 377.252H810.754V413.377H846.879V377.252Z" fill="black"/>
<path d="M919.129 377.252H883.004V413.377H919.129V377.252Z" fill="black"/>
<path d="M991.38 377.252H955.254V413.377H991.38V377.252Z" fill="black"/>
<path d="M88.2503 413.377H52.1252V449.502H88.2503V413.377Z" fill="black"/>
<path d="M124.376 413.377H88.2503V449.502H124.376V413.377Z" fill="black"/>
<path d="M160.501 413.377H124.376V449.502H160.501V413.377Z" fill="black"/>
<path d="M232.751 413.377H196.626V449.502H232.751V413.377Z" fill="black"/>
<path d="M305.001 413.377H268.876V449.502H305.001V413.377Z" fill="black"/>
<path d="M341.127 413.377H305.001V449.502H341.127V413.377Z" fill="black"/>
<path d="M377.252 413.377H341.127V449.502H377.252V413.377Z" fill="black"/>
<path d="M413.377 413.377H377.252V449.502H413.377V413.377Z" fill="black"/>
<path d="M449.502 413.377H413.377V449.502H449.502V413.377Z" fill="black"/>
<path d="M485.627 413.377H449.502V449.502H485.627V413.377Z" fill="black"/>
<path d="M702.378 413.377H666.253V449.502H702.378V413.377Z" fill="black"/>
<path d="M738.503 413.377H702.378V449.502H738.503V413.377Z" fill="black"/>
<path d="M774.629 413.377H738.503V449.502H774.629V413.377Z" fill="black"/>
<path d="M919.129 413.377H883.004V449.502H919.129V413.377Z" fill="black"/>
<path d="M52.1252 449.502H16V485.627H52.1252V449.502Z" fill="black"/>
<path d="M88.2503 449.502H52.1252V485.627H88.2503V449.502Z" fill="black"/>
<path d="M160.501 449.502H124.376V485.627H160.501V449.502Z" fill="black"/>
<path d="M268.876 449.502H232.751V485.627H268.876V449.502Z" fill="black"/>
<path d="M413.377 449.502H377.252V485.627H413.377V449.502Z" fill="black"/>
<path d="M449.502 449.502H413.377V485.627H449.502V449.502Z" fill="black"/>
<path d="M594.003 449.502H557.878V485.627H594.003V449.502Z" fill="black"/>
<path d="M666.253 449.502H630.128V485.627H666.253V449.502Z" fill="black"/>
<path d="M774.629 449.502H738.503V485.627H774.629V449.502Z" fill="black"/>
<path d="M810.754 449.502H774.629V485.627H810.754V449.502Z" fill="black"/>
<path d="M846.879 449.502H810.754V485.627H846.879V449.502Z" fill="black"/>
<path d="M883.004 449.502H846.879V485.627H883.004V449.502Z" fill="black"/>
<path d="M991.38 449.502H955.254V485.627H991.38V449.502Z" fill="black"/>
<path d="M1027.5 449.502H991.38V485.627H1027.5V449.502Z" fill="black"/>
<path d="M52.1252 485.627H16V521.752H52.1252V485.627Z" fill="black"/>
<path d="M124.376 485.627H88.2503V521.752H124.376V485.627Z" fill="black"/>
<path d="M160.501 485.627H124.376V521.752H160.501V485.627Z" fill="black"/>
<path d="M232.751 485.627H196.626V521.752H232.751V485.627Z" fill="black"/>
<path d="M305.001 485.627H268.876V521.752H305.001V485.627Z" fill="black"/>
<path d="M413.377 485.627H377.252V521.752H413.377V485.627Z" fill="black"/>
<path d="M521.752 485.627H485.627V521.752H521.752V485.627Z" fill="black"/>
<path d="M594.003 485.627H557.878V521.752H594.003V485.627Z" fill="black"/>
<path d="M702.378 485.627H666.253V521.752H702.378V485.627Z" fill="black"/>
<path d="M810.754 485.627H774.629V521.752H810.754V485.627Z" fill="black"/>
<path d="M883.004 485.627H846.879V521.752H883.004V485.627Z" fill="black"/>
<path d="M955.254 485.627H919.129V521.752H955.254V485.627Z" fill="black"/>
<path d="M991.38 485.627H955.254V521.752H991.38V485.627Z" fill="black"/>
<path d="M88.2503 521.752H52.1252V557.878H88.2503V521.752Z" fill="black"/>
<path d="M124.376 521.752H88.2503V557.878H124.376V521.752Z" fill="black"/>
<path d="M160.501 521.752H124.376V557.878H160.501V521.752Z" fill="black"/>
<path d="M196.626 521.752H160.501V557.878H196.626V521.752Z" fill="black"/>
<path d="M268.876 521.752H232.751V557.878H268.876V521.752Z" fill="black"/>
<path d="M305.001 521.752H268.876V557.878H305.001V521.752Z" fill="black"/>
<path d="M341.127 521.752H305.001V557.878H341.127V521.752Z" fill="black"/>
<path d="M377.252 521.752H341.127V557.878H377.252V521.752Z" fill="black"/>
<path d="M557.878 521.752H521.752V557.878H557.878V521.752Z" fill="black"/>
<path d="M594.003 521.752H557.878V557.878H594.003V521.752Z" fill="black"/>
<path d="M630.128 521.752H594.003V557.878H630.128V521.752Z" fill="black"/>
<path d="M666.253 521.752H630.128V557.878H666.253V521.752Z" fill="black"/>
<path d="M846.879 521.752H810.754V557.878H846.879V521.752Z" fill="black"/>
<path d="M883.004 521.752H846.879V557.878H883.004V521.752Z" fill="black"/>
<path d="M919.129 521.752H883.004V557.878H919.129V521.752Z" fill="black"/>
<path d="M955.254 521.752H919.129V557.878H955.254V521.752Z" fill="black"/>
<path d="M991.38 521.752H955.254V557.878H991.38V521.752Z" fill="black"/>
<path d="M1027.5 521.752H991.38V557.878H1027.5V521.752Z" fill="black"/>
<path d="M1063.63 521.752H1027.5V557.878H1063.63V521.752Z" fill="black"/>
<path d="M88.2503 557.878H52.1252V594.003H88.2503V557.878Z" fill="black"/>
<path d="M160.501 557.878H124.376V594.003H160.501V557.878Z" fill="black"/>
<path d="M341.127 557.878H305.001V594.003H341.127V557.878Z" fill="black"/>
<path d="M377.252 557.878H341.127V594.003H377.252V557.878Z" fill="black"/>
<path d="M449.502 557.878H413.377V594.003H449.502V557.878Z" fill="black"/>
<path d="M521.752 557.878H485.627V594.003H521.752V557.878Z" fill="black"/>
<path d="M557.878 557.878H521.752V594.003H557.878V557.878Z" fill="black"/>
<path d="M630.128 557.878H594.003V594.003H630.128V557.878Z" fill="black"/>
<path d="M666.253 557.878H630.128V594.003H666.253V557.878Z" fill="black"/>
<path d="M738.503 557.878H702.378V594.003H738.503V557.878Z" fill="black"/>
<path d="M810.754 557.878H774.629V594.003H810.754V557.878Z" fill="black"/>
<path d="M846.879 557.878H810.754V594.003H846.879V557.878Z" fill="black"/>
<path d="M919.129 557.878H883.004V594.003H919.129V557.878Z" fill="black"/>
<path d="M955.254 557.878H919.129V594.003H955.254V557.878Z" fill="black"/>
<path d="M1027.5 557.878H991.38V594.003H1027.5V557.878Z" fill="black"/>
<path d="M52.1252 594.003H16V630.128H52.1252V594.003Z" fill="black"/>
<path d="M88.2503 594.003H52.1252V630.128H88.2503V594.003Z" fill="black"/>
<path d="M124.376 594.003H88.2503V630.128H124.376V594.003Z" fill="black"/>
<path d="M268.876 594.003H232.751V630.128H268.876V594.003Z" fill="black"/>
<path d="M305.001 594.003H268.876V630.128H305.001V594.003Z" fill="black"/>
<path d="M485.627 594.003H449.502V630.128H485.627V594.003Z" fill="black"/>
<path d="M521.752 594.003H485.627V630.128H521.752V594.003Z" fill="black"/>
<path d="M557.878 594.003H521.752V630.128H557.878V594.003Z" fill="black"/>
<path d="M594.003 594.003H557.878V630.128H594.003V594.003Z" fill="black"/>
<path d="M774.629 594.003H738.503V630.128H774.629V594.003Z" fill="black"/>
<path d="M810.754 594.003H774.629V630.128H810.754V594.003Z" fill="black"/>
<path d="M846.879 594.003H810.754V630.128H846.879V594.003Z" fill="black"/>
<path d="M883.004 594.003H846.879V630.128H883.004V594.003Z" fill="black"/>
<path d="M1063.63 594.003H1027.5V630.128H1063.63V594.003Z" fill="black"/>
<path d="M52.1252 630.128H16V666.253H52.1252V630.128Z" fill="black"/>
<path d="M88.2503 630.128H52.1252V666.253H88.2503V630.128Z" fill="black"/>
<path d="M196.626 630.128H160.501V666.253H196.626V630.128Z" fill="black"/>
<path d="M305.001 630.128H268.876V666.253H305.001V630.128Z" fill="black"/>
<path d="M341.127 630.128H305.001V666.253H341.127V630.128Z" fill="black"/>
<path d="M377.252 630.128H341.127V666.253H377.252V630.128Z" fill="black"/>
<path d="M449.502 630.128H413.377V666.253H449.502V630.128Z" fill="black"/>
<path d="M485.627 630.128H449.502V666.253H485.627V630.128Z" fill="black"/>
<path d="M521.752 630.128H485.627V666.253H521.752V630.128Z" fill="black"/>
<path d="M594.003 630.128H557.878V666.253H594.003V630.128Z" fill="black"/>
<path d="M630.128 630.128H594.003V666.253H630.128V630.128Z" fill="black"/>
<path d="M666.253 630.128H630.128V666.253H666.253V630.128Z" fill="black"/>
<path d="M738.503 630.128H702.378V666.253H738.503V630.128Z" fill="black"/>
<path d="M774.629 630.128H738.503V666.253H774.629V630.128Z" fill="black"/>
<path d="M846.879 630.128H810.754V666.253H846.879V630.128Z" fill="black"/>
<path d="M883.004 630.128H846.879V666.253H883.004V630.128Z" fill="black"/>
<path d="M991.38 630.128H955.254V666.253H991.38V630.128Z" fill="black"/>
<path d="M52.1252 666.253H16V702.378H52.1252V666.253Z" fill="black"/>
<path d="M88.2503 666.253H52.1252V702.378H88.2503V666.253Z" fill="black"/>
<path d="M124.376 666.253H88.2503V702.378H124.376V666.253Z" fill="black"/>
<path d="M196.626 666.253H160.501V702.378H196.626V666.253Z" fill="black"/>
<path d="M232.751 666.253H196.626V702.378H232.751V666.253Z" fill="black"/>
<path d="M268.876 666.253H232.751V702.378H268.876V666.253Z" fill="black"/>
<path d="M413.377 666.253H377.252V702.378H413.377V666.253Z" fill="black"/>
<path d="M449.502 666.253H413.377V702.378H449.502V666.253Z" fill="black"/>
<path d="M521.752 666.253H485.627V702.378H521.752V666.253Z" fill="black"/>
<path d="M557.878 666.253H521.752V702.378H557.878V666.253Z" fill="black"/>
<path d="M666.253 666.253H630.128V702.378H666.253V666.253Z" fill="black"/>
<path d="M702.378 666.253H666.253V702.378H702.378V666.253Z" fill="black"/>
<path d="M774.629 666.253H738.503V702.378H774.629V666.253Z" fill="black"/>
<path d="M883.004 666.253H846.879V702.378H883.004V666.253Z" fill="black"/>
<path d="M919.129 666.253H883.004V702.378H919.129V666.253Z" fill="black"/>
<path d="M52.1252 702.378H16V738.503H52.1252V702.378Z" fill="black"/>
<path d="M88.2503 702.378H52.1252V738.503H88.2503V702.378Z" fill="black"/>
<path d="M160.501 702.378H124.376V738.503H160.501V702.378Z" fill="black"/>
<path d="M196.626 702.378H160.501V738.503H196.626V702.378Z" fill="black"/>
<path d="M232.751 702.378H196.626V738.503H232.751V702.378Z" fill="black"/>
<path d="M594.003 702.378H557.878V738.503H594.003V702.378Z" fill="black"/>
<path d="M846.879 702.378H810.754V738.503H846.879V702.378Z" fill="black"/>
<path d="M955.254 702.378H919.129V738.503H955.254V702.378Z" fill="black"/>
<path d="M991.38 702.378H955.254V738.503H991.38V702.378Z" fill="black"/>
<path d="M1027.5 702.378H991.38V738.503H1027.5V702.378Z" fill="black"/>
<path d="M88.2503 738.503H52.1252V774.629H88.2503V738.503Z" fill="black"/>
<path d="M232.751 738.503H196.626V774.629H232.751V738.503Z" fill="black"/>
<path d="M268.876 738.503H232.751V774.629H268.876V738.503Z" fill="black"/>
<path d="M341.127 738.503H305.001V774.629H341.127V738.503Z" fill="black"/>
<path d="M377.252 738.503H341.127V774.629H377.252V738.503Z" fill="black"/>
<path d="M413.377 738.503H377.252V774.629H413.377V738.503Z" fill="black"/>
<path d="M521.752 738.503H485.627V774.629H521.752V738.503Z" fill="black"/>
<path d="M594.003 738.503H557.878V774.629H594.003V738.503Z" fill="black"/>
<path d="M630.128 738.503H594.003V774.629H630.128V738.503Z" fill="black"/>
<path d="M666.253 738.503H630.128V774.629H666.253V738.503Z" fill="black"/>
<path d="M702.378 738.503H666.253V774.629H702.378V738.503Z" fill="black"/>
<path d="M738.503 738.503H702.378V774.629H738.503V738.503Z" fill="black"/>
<path d="M774.629 738.503H738.503V774.629H774.629V738.503Z" fill="black"/>
<path d="M810.754 738.503H774.629V774.629H810.754V738.503Z" fill="black"/>
<path d="M846.879 738.503H810.754V774.629H846.879V738.503Z" fill="black"/>
<path d="M883.004 738.503H846.879V774.629H883.004V738.503Z" fill="black"/>
<path d="M919.129 738.503H883.004V774.629H919.129V738.503Z" fill="black"/>
<path d="M955.254 738.503H919.129V774.629H955.254V738.503Z" fill="black"/>
<path d="M1027.5 738.503H991.38V774.629H1027.5V738.503Z" fill="black"/>
<path d="M1063.63 738.503H1027.5V774.629H1063.63V738.503Z" fill="black"/>
<path d="M377.252 774.629H341.127V810.754H377.252V774.629Z" fill="black"/>
<path d="M413.377 774.629H377.252V810.754H413.377V774.629Z" fill="black"/>
<path d="M449.502 774.629H413.377V810.754H449.502V774.629Z" fill="black"/>
<path d="M485.627 774.629H449.502V810.754H485.627V774.629Z" fill="black"/>
<path d="M521.752 774.629H485.627V810.754H521.752V774.629Z" fill="black"/>
<path d="M630.128 774.629H594.003V810.754H630.128V774.629Z" fill="black"/>
<path d="M666.253 774.629H630.128V810.754H666.253V774.629Z" fill="black"/>
<path d="M702.378 774.629H666.253V810.754H702.378V774.629Z" fill="black"/>
<path d="M774.629 774.629H738.503V810.754H774.629V774.629Z" fill="black"/>
<path d="M919.129 774.629H883.004V810.754H919.129V774.629Z" fill="black"/>
<path d="M1027.5 774.629H991.38V810.754H1027.5V774.629Z" fill="black"/>
<path d="M1063.63 774.629H1027.5V810.754H1063.63V774.629Z" fill="black"/>
<path d="M52.1252 810.754H16V846.879H52.1252V810.754Z" fill="black"/>
<path d="M88.2503 810.754H52.1252V846.879H88.2503V810.754Z" fill="black"/>
<path d="M124.376 810.754H88.2503V846.879H124.376V810.754Z" fill="black"/>
<path d="M160.501 810.754H124.376V846.879H160.501V810.754Z" fill="black"/>
<path d="M196.626 810.754H160.501V846.879H196.626V810.754Z" fill="black"/>
<path d="M232.751 810.754H196.626V846.879H232.751V810.754Z" fill="black"/>
<path d="M268.876 810.754H232.751V846.879H268.876V810.754Z" fill="black"/>
<path d="M377.252 810.754H341.127V846.879H377.252V810.754Z" fill="black"/>
<path d="M485.627 810.754H449.502V846.879H485.627V810.754Z" fill="black"/>
<path d="M521.752 810.754H485.627V846.879H521.752V810.754Z" fill="black"/>
<path d="M630.128 810.754H594.003V846.879H630.128V810.754Z" fill="black"/>
<path d="M666.253 810.754H630.128V846.879H666.253V810.754Z" fill="black"/>
<path d="M774.629 810.754H738.503V846.879H774.629V810.754Z" fill="black"/>
<path d="M846.879 810.754H810.754V846.879H846.879V810.754Z" fill="black"/>
<path d="M919.129 810.754H883.004V846.879H919.129V810.754Z" fill="black"/>
<path d="M1063.63 810.754H1027.5V846.879H1063.63V810.754Z" fill="black"/>
<path d="M52.1252 846.879H16V883.004H52.1252V846.879Z" fill="black"/>
<path d="M268.876 846.879H232.751V883.004H268.876V846.879Z" fill="black"/>
<path d="M413.377 846.879H377.252V883.004H413.377V846.879Z" fill="black"/>
<path d="M557.878 846.879H521.752V883.004H557.878V846.879Z" fill="black"/>
<path d="M594.003 846.879H557.878V883.004H594.003V846.879Z" fill="black"/>
<path d="M702.378 846.879H666.253V883.004H702.378V846.879Z" fill="black"/>
<path d="M774.629 846.879H738.503V883.004H774.629V846.879Z" fill="black"/>
<path d="M919.129 846.879H883.004V883.004H919.129V846.879Z" fill="black"/>
<path d="M955.254 846.879H919.129V883.004H955.254V846.879Z" fill="black"/>
<path d="M991.38 846.879H955.254V883.004H991.38V846.879Z" fill="black"/>
<path d="M1027.5 846.879H991.38V883.004H1027.5V846.879Z" fill="black"/>
<path d="M52.1252 883.004H16V919.129H52.1252V883.004Z" fill="black"/>
<path d="M124.376 883.004H88.2503V919.129H124.376V883.004Z" fill="black"/>
<path d="M160.501 883.004H124.376V919.129H160.501V883.004Z" fill="black"/>
<path d="M196.626 883.004H160.501V919.129H196.626V883.004Z" fill="black"/>
<path d="M268.876 883.004H232.751V919.129H268.876V883.004Z" fill="black"/>
<path d="M341.127 883.004H305.001V919.129H341.127V883.004Z" fill="black"/>
<path d="M449.502 883.004H413.377V919.129H449.502V883.004Z" fill="black"/>
<path d="M557.878 883.004H521.752V919.129H557.878V883.004Z" fill="black"/>
<path d="M738.503 883.004H702.378V919.129H738.503V883.004Z" fill="black"/>
<path d="M774.629 883.004H738.503V919.129H774.629V883.004Z" fill="black"/>
<path d="M810.754 883.004H774.629V919.129H810.754V883.004Z" fill="black"/>
<path d="M846.879 883.004H810.754V919.129H846.879V883.004Z" fill="black"/>
<path d="M883.004 883.004H846.879V919.129H883.004V883.004Z" fill="black"/>
<path d="M919.129 883.004H883.004V919.129H919.129V883.004Z" fill="black"/>
<path d="M955.254 883.004H919.129V919.129H955.254V883.004Z" fill="black"/>
<path d="M991.38 883.004H955.254V919.129H991.38V883.004Z" fill="black"/>
<path d="M1027.5 883.004H991.38V919.129H1027.5V883.004Z" fill="black"/>
<path d="M52.1252 919.129H16V955.254H52.1252V919.129Z" fill="black"/>
<path d="M124.376 919.129H88.2503V955.254H124.376V919.129Z" fill="black"/>
<path d="M160.501 919.129H124.376V955.254H160.501V919.129Z" fill="black"/>
<path d="M196.626 919.129H160.501V955.254H196.626V919.129Z" fill="black"/>
<path d="M268.876 919.129H232.751V955.254H268.876V919.129Z" fill="black"/>
<path d="M377.252 919.129H341.127V955.254H377.252V919.129Z" fill="black"/>
<path d="M485.627 919.129H449.502V955.254H485.627V919.129Z" fill="black"/>
<path d="M521.752 919.129H485.627V955.254H521.752V919.129Z" fill="black"/>
<path d="M557.878 919.129H521.752V955.254H557.878V919.129Z" fill="black"/>
<path d="M594.003 919.129H557.878V955.254H594.003V919.129Z" fill="black"/>
<path d="M630.128 919.129H594.003V955.254H630.128V919.129Z" fill="black"/>
<path d="M666.253 919.129H630.128V955.254H666.253V919.129Z" fill="black"/>
<path d="M738.503 919.129H702.378V955.254H738.503V919.129Z" fill="black"/>
<path d="M846.879 919.129H810.754V955.254H846.879V919.129Z" fill="black"/>
<path d="M883.004 919.129H846.879V955.254H883.004V919.129Z" fill="black"/>
<path d="M991.38 919.129H955.254V955.254H991.38V919.129Z" fill="black"/>
<path d="M52.1252 955.254H16V991.38H52.1252V955.254Z" fill="black"/>
<path d="M124.376 955.254H88.2503V991.38H124.376V955.254Z" fill="black"/>
<path d="M160.501 955.254H124.376V991.38H160.501V955.254Z" fill="black"/>
<path d="M196.626 955.254H160.501V991.38H196.626V955.254Z" fill="black"/>
<path d="M268.876 955.254H232.751V991.38H268.876V955.254Z" fill="black"/>
<path d="M413.377 955.254H377.252V991.38H413.377V955.254Z" fill="black"/>
<path d="M666.253 955.254H630.128V991.38H666.253V955.254Z" fill="black"/>
<path d="M810.754 955.254H774.629V991.38H810.754V955.254Z" fill="black"/>
<path d="M955.254 955.254H919.129V991.38H955.254V955.254Z" fill="black"/>
<path d="M52.1252 991.38H16V1027.5H52.1252V991.38Z" fill="black"/>
<path d="M268.876 991.38H232.751V1027.5H268.876V991.38Z" fill="black"/>
<path d="M341.127 991.38H305.001V1027.5H341.127V991.38Z" fill="black"/>
<path d="M413.377 991.38H377.252V1027.5H413.377V991.38Z" fill="black"/>
<path d="M449.502 991.38H413.377V1027.5H449.502V991.38Z" fill="black"/>
<path d="M485.627 991.38H449.502V1027.5H485.627V991.38Z" fill="black"/>
<path d="M557.878 991.38H521.752V1027.5H557.878V991.38Z" fill="black"/>
<path d="M594.003 991.38H557.878V1027.5H594.003V991.38Z" fill="black"/>
<path d="M630.128 991.38H594.003V1027.5H630.128V991.38Z" fill="black"/>
<path d="M702.378 991.38H666.253V1027.5H702.378V991.38Z" fill="black"/>
<path d="M738.503 991.38H702.378V1027.5H738.503V991.38Z" fill="black"/>
<path d="M810.754 991.38H774.629V1027.5H810.754V991.38Z" fill="black"/>
<path d="M846.879 991.38H810.754V1027.5H846.879V991.38Z" fill="black"/>
<path d="M883.004 991.38H846.879V1027.5H883.004V991.38Z" fill="black"/>
<path d="M919.129 991.38H883.004V1027.5H919.129V991.38Z" fill="black"/>
<path d="M1027.5 991.38H991.38V1027.5H1027.5V991.38Z" fill="black"/>
<path d="M1063.63 991.38H1027.5V1027.5H1063.63V991.38Z" fill="black"/>
<path d="M52.1252 1027.5H16V1063.63H52.1252V1027.5Z" fill="black"/>
<path d="M88.2503 1027.5H52.1252V1063.63H88.2503V1027.5Z" fill="black"/>
<path d="M124.376 1027.5H88.2503V1063.63H124.376V1027.5Z" fill="black"/>
<path d="M160.501 1027.5H124.376V1063.63H160.501V1027.5Z" fill="black"/>
<path d="M196.626 1027.5H160.501V1063.63H196.626V1027.5Z" fill="black"/>
<path d="M232.751 1027.5H196.626V1063.63H232.751V1027.5Z" fill="black"/>
<path d="M268.876 1027.5H232.751V1063.63H268.876V1027.5Z" fill="black"/>
<path d="M377.252 1027.5H341.127V1063.63H377.252V1027.5Z" fill="black"/>
<path d="M413.377 1027.5H377.252V1063.63H413.377V1027.5Z" fill="black"/>
<path d="M485.627 1027.5H449.502V1063.63H485.627V1027.5Z" fill="black"/>
<path d="M521.752 1027.5H485.627V1063.63H521.752V1027.5Z" fill="black"/>
<path d="M557.878 1027.5H521.752V1063.63H557.878V1027.5Z" fill="black"/>
<path d="M630.128 1027.5H594.003V1063.63H630.128V1027.5Z" fill="black"/>
<path d="M666.253 1027.5H630.128V1063.63H666.253V1027.5Z" fill="black"/>
<path d="M702.378 1027.5H666.253V1063.63H702.378V1027.5Z" fill="black"/>
<path d="M810.754 1027.5H774.629V1063.63H810.754V1027.5Z" fill="black"/>
<path d="M846.879 1027.5H810.754V1063.63H846.879V1027.5Z" fill="black"/>
<path d="M991.38 1027.5H955.254V1063.63H991.38V1027.5Z" fill="black"/>
<path d="M1063.63 1027.5H1027.5V1063.63H1063.63V1027.5Z" fill="black"/>
</g>
<defs>
<clipPath id="clip0_9_58">
<rect width="1079.63" height="1079.63" fill="white"/>
</clipPath>
</defs>
</svg>
