<svg width="204" height="204" viewBox="0 0 204 204" fill="none" xmlns="http://www.w3.org/2000/svg">
<g clip-path="url(#clip0_1_438)">
<path fill-rule="evenodd" clip-rule="evenodd" d="M76.0019 54.8392C75.0195 52.2125 74.1559 49.5949 73.4142 46.9534C72.3002 42.9913 71.7233 38.8936 70.826 34.8897C70.4439 33.1913 69.3785 28.7769 69.337 28.1204C69.0053 22.3932 73.3459 20.6679 74.6343 20.2606C75.2542 20.0458 81.6595 18.0485 84.4754 25.036C87.9243 33.5785 90.2073 42.4095 91.2866 51.2835C94.1563 58.4506 98.0359 65.3906 102.564 71.4775C120.579 95.6859 145.577 93.5437 172.071 88.1692C176.141 87.3191 180.15 89.8671 181.148 93.8832C182.151 97.9298 179.797 102.056 175.804 103.208C161.246 107.509 137.224 124.495 130.519 138.64C129.116 141.601 129.218 148.069 128.939 154.484C128.54 163.39 127.736 172.28 125.696 176.345C125.393 176.973 121.509 183.547 120.186 184.658C117 187.299 113.929 186.721 112.109 185.997C110.288 185.273 108.06 183.584 106.673 180.339C105.223 176.948 104.467 169.562 104.047 168.029C102.523 162.469 99.2534 151.614 95.1102 142.541C92.8779 137.656 90.6398 133.183 87.9953 131.258C78.206 124.131 65.4884 127.918 54.8472 131.463C53.6228 131.858 52.4044 132.283 51.1831 132.677C46.9919 134.848 42.4611 136.737 37.5853 138.281C30.2242 140.621 27.647 133.936 27.4915 133.491C27.1565 132.511 25.6323 127.426 30.9086 124.254C31.4866 123.921 35.862 122.031 37.5456 121.294C39.8921 120.271 42.2898 119.364 44.7024 118.487C68.8715 105.523 78.4972 80.3704 76.0019 54.8392ZM90.188 80.864C103.775 99.061 120.382 105.914 138.694 106.932L138.691 106.932C128.89 114.745 120.352 123.801 116.482 131.986C115.012 135.086 114.237 140.901 113.772 147.352C111.775 141.82 109.394 135.982 106.796 131.105C103.836 125.537 100.443 121.098 97.1499 118.697C90.7935 114.071 83.5783 112.206 76.1725 112.024C83.2212 102.844 87.8541 92.2016 90.188 80.864Z" fill="black"/>
</g>
<defs>
<clipPath id="clip0_1_438">
<rect width="174" height="174" fill="white" transform="translate(0.132812 33.156) rotate(-10.9406)"/>
</clipPath>
</defs>
</svg>
