<svg width="156" height="169" viewBox="0 0 156 169" fill="none" xmlns="http://www.w3.org/2000/svg">
<path fill-rule="evenodd" clip-rule="evenodd" d="M79.5771 32.3283C79.9126 29.5441 80.3495 26.8225 80.9057 24.1358C81.7385 20.1053 83.1106 16.2012 84.155 12.2332C84.5967 10.5493 85.6807 6.13946 85.9458 5.53737C88.2849 0.299115 92.9328 0.763213 94.2642 0.99404C94.9134 1.0884 101.52 2.26034 100.807 9.76018C99.941 18.9318 97.9073 27.8235 94.7849 36.1998C94.0372 43.8838 94.2908 51.8305 95.5124 59.318C100.377 89.0994 123.56 98.6929 149.558 106.104C153.563 107.221 155.951 111.327 154.99 115.352C154.021 119.407 150.032 121.988 145.957 121.174C131.052 118.299 101.91 122.336 89.4502 131.813C86.8432 133.797 83.959 139.587 80.7613 145.155C76.3115 152.881 71.5096 160.405 67.8284 163.077C67.2708 163.496 60.7983 167.547 59.1125 167.924C55.069 168.804 52.608 166.88 51.3245 165.399C50.041 163.919 48.839 161.394 49.0997 157.875C49.3716 154.198 52.0961 147.291 52.4283 145.737C53.6317 140.099 55.7208 128.956 56.214 118.994C56.4782 113.629 56.5476 108.628 55.0849 105.702C49.6695 94.8719 36.6346 92.3869 25.5554 90.6408C24.2866 90.4284 23.009 90.2459 21.7432 90.0345C17.023 90.0349 12.1313 89.6281 7.0917 88.7568C-0.521257 87.4501 0.264777 80.3283 0.331101 79.8619C0.484166 78.838 1.46919 73.6215 7.61313 73.2313C8.27965 73.2011 13.0341 73.5347 14.868 73.6546C17.4223 73.8251 19.9681 74.1229 22.5142 74.4529C49.9375 74.0561 70.052 56.1472 79.5771 32.3283ZM80.2062 61.9618C83.9036 84.3689 95.4987 98.0915 111.291 107.416L111.288 107.415C98.9928 109.845 87.2468 113.961 80.0458 119.449C77.3142 121.526 73.9524 126.333 70.5728 131.847C71.3438 126.017 71.9135 119.738 71.8496 114.212C71.7822 107.907 70.8105 102.405 68.9903 98.7584C65.4732 91.7275 59.9238 86.7535 53.4314 83.1858C63.9118 78.2762 72.92 70.9562 80.2062 61.9618Z" fill="black"/>
</svg>
