<svg width="330" height="330" viewBox="0 0 330 330" fill="none" xmlns="http://www.w3.org/2000/svg">
<g clip-path="url(#clip0_1_442)">
<path fill-rule="evenodd" clip-rule="evenodd" d="M278.306 186.322C195.324 231.458 102.012 210.844 58.178 126.209C56.719 123.391 53.2525 122.289 50.4533 123.72C47.6275 125.191 46.5226 128.661 47.9816 131.479C94.9405 222.234 194.857 244.78 283.786 196.429C286.563 194.925 287.607 191.415 286.097 188.622C284.56 185.869 281.083 184.819 278.306 186.322Z" fill="black"/>
<path d="M136.171 134.584C143.905 139.643 154.277 137.474 159.335 129.74C164.394 122.005 162.225 111.634 154.49 106.575C146.755 101.516 136.384 103.685 131.326 111.42C126.267 119.155 128.436 129.526 136.171 134.584Z" fill="black"/>
<path d="M203.892 157.607C211.475 162.567 221.644 160.44 226.604 152.857C231.564 145.273 229.437 135.105 221.853 130.145C214.27 125.185 204.101 127.312 199.141 134.895C194.181 142.479 196.308 152.647 203.892 157.607Z" fill="black"/>
</g>
<defs>
<clipPath id="clip0_1_442">
<rect width="238.383" height="238.383" fill="white" transform="translate(130.483) rotate(33.1865)"/>
</clipPath>
</defs>
</svg>
